<svg width="500" height="334" viewBox="0 0 500 334" fill="none" xmlns="http://www.w3.org/2000/svg">
<rect width="500" height="333.333" fill="#F9F9F9"/>
<rect x="416" width="84" height="333" fill="#BF4040"/>
<path d="M205.418 48C205.418 48 203.384 50.609 204.454 54.3412C206.523 61.5564 210.48 67.3895 210.761 71.4747C211.002 75.0518 209.837 76.8607 207.828 79.2996C205.82 81.7386 202.767 84.5027 202.767 84.5027C202.767 84.5027 205.499 80.6817 205.579 76.7794C205.659 72.8771 200.035 62.5523 199.392 59.7069C198.75 56.8615 198.361 54.967 200.437 52.3088C202.236 50.0047 205.418 48 205.418 48Z" fill="#4B4B4B"/>
<path d="M196.405 59.6157C196.405 59.6157 194.982 61.4417 195.731 64.0538C197.179 69.1035 199.948 73.1859 200.145 76.045C200.313 78.5485 199.498 79.8145 198.092 81.5214C196.686 83.2284 194.55 85.1629 194.55 85.1629C194.55 85.1629 196.462 82.4887 196.518 79.7576C196.574 77.0265 192.638 69.8005 192.188 67.809C191.738 65.8176 191.466 64.4917 192.919 62.6313C194.178 61.0188 196.405 59.6157 196.405 59.6157Z" fill="#4B4B4B"/>
<path d="M178.262 90.4374L178.343 95.8437L200.718 91.9008L200.678 86.5758L178.262 90.4374Z" fill="#808080"/>
<path d="M200.678 86.5758L200.718 91.9008L223.094 95.6811L223.053 90.4781L200.678 86.5758Z" fill="#4B4B4B"/>
<path d="M200.879 93.2828L200.859 102.957L240.086 108.851L240.066 100.071L200.879 93.2828Z" fill="#4B4B4B"/>
<path d="M200.728 104.441L200.829 107.164L237.083 112.611L236.983 109.807L200.728 104.441Z" fill="#4B4B4B"/>
<path d="M161.261 99.9588L161.402 108.78L200.859 102.957L200.879 93.2828L161.261 99.9588Z" fill="#808080"/>
<path d="M164.463 110.01L164.443 112.449L200.829 107.164L200.728 104.441L164.463 110.01Z" fill="#808080"/>
<path d="M229.18 113.018L229.28 120.05L233.116 120.497L233.257 113.709L229.18 113.018Z" fill="#872D2D"/>
<path d="M209.727 110.233L209.707 117.631L227.402 119.664L227.543 112.876L209.727 110.233Z" fill="#872D2D"/>
<path d="M200.849 108.729L200.829 116.615L208.039 117.347L208.059 109.908L200.849 108.729Z" fill="#872D2D"/>
<path d="M229.049 129.379L229.029 135.964L233.187 136.045L233.127 129.745L229.049 129.379Z" fill="#872D2D"/>
<path d="M229.129 145.435L229.109 152.955L233.307 152.874L233.287 145.435H229.129Z" fill="#872D2D"/>
<path d="M229.049 162.345L229.069 169.54L233.187 169.378L233.127 162.427L229.049 162.345Z" fill="#872D2D"/>
<path d="M219.528 120.499L219.735 127.092L233 128.032L233.254 121.876L219.528 120.499Z" fill="#872D2D"/>
<path d="M201.065 118.257L200.76 125.712L217.831 127.112L218.085 120.151L201.065 118.257Z" fill="#872D2D"/>
<path d="M209.757 128.029L209.595 135.312L227.375 135.85L227.488 129.148L209.757 128.029Z" fill="#872D2D"/>
<path d="M219.642 137.083L219.537 143.849L233.113 143.984L233.14 137.541L219.642 137.083Z" fill="#872D2D"/>
<path d="M200.755 136.556L200.732 143.332L218.03 143.755L218.029 137.167L200.755 136.556Z" fill="#872D2D"/>
<path d="M209.558 145.045L209.481 152.846L227.574 152.809L227.516 145.244L209.558 145.045Z" fill="#872D2D"/>
<path d="M219.557 154.329L219.508 161.239L233.17 160.799L233.14 154.356L219.557 154.329Z" fill="#872D2D"/>
<path d="M200.752 154.214L200.732 162.015L218.03 161.23L217.972 154.356L200.752 154.214Z" fill="#872D2D"/>
<path d="M209.643 163.153L209.651 170.666L227.461 169.652L227.459 162.605L209.643 163.153Z" fill="#872D2D"/>
<path d="M200.736 127.432L200.726 135.166L207.887 135.339L207.917 127.94L200.736 127.432Z" fill="#872D2D"/>
<path d="M200.781 144.985L200.801 152.576L207.881 152.586L207.881 145.046L200.781 144.985Z" fill="#872D2D"/>
<path d="M200.693 163.306L200.723 171.111L207.934 170.704L207.873 163.255L200.693 163.306Z" fill="#872D2D"/>
<path d="M168.301 113.59L168.338 120.442L181.602 118.853L181.558 111.677L168.301 113.59Z" fill="#A94847"/>
<path d="M174.566 121.249L174.587 127.672L191.68 126.452L191.78 119.237L174.566 121.249Z" fill="#A94847"/>
<path d="M168.229 129.552L168.249 135.974L181.767 135.608L181.707 128.698L168.229 129.552Z" fill="#A94847"/>
<path d="M174.536 137.377L174.476 143.82L191.69 143.576L191.71 136.93L174.536 137.377Z" fill="#A94847"/>
<path d="M183.274 128.475L183.314 135.69L200.726 135.166L200.736 127.432L183.274 128.475Z" fill="#A94847"/>
<path d="M183.374 111.361L183.334 118.617L200.829 116.615L200.849 108.729L183.374 111.361Z" fill="#A94847"/>
<path d="M168.29 145.466L168.189 152.844L181.687 152.864L181.727 145.324L168.29 145.466Z" fill="#A94847"/>
<path d="M183.334 145.324L183.374 152.783L200.801 152.576L200.781 144.985L183.334 145.324Z" fill="#A94847"/>
<path d="M173.974 154.449L173.894 161.075L191.629 161.583L191.75 154.388L173.974 154.449Z" fill="#A94847"/>
<path d="M168.29 162.335L168.31 169.347L181.687 170.14L181.667 162.823L168.29 162.335Z" fill="#A94847"/>
<path d="M183.254 162.864L183.294 170.221L200.723 171.111L200.693 163.306L183.254 162.864Z" fill="#A94847"/>
<path d="M168.38 122.027L168.316 128.026L172.873 127.646L172.819 121.546L168.38 122.027Z" fill="#A94847"/>
<path d="M168.344 137.524L168.261 143.868L172.848 143.803L172.844 137.541L168.344 137.524Z" fill="#A94847"/>
<path d="M168.194 154.353L168.19 160.839L172.386 160.927L172.362 154.38L168.194 154.353Z" fill="#A94847"/>
<path d="M193.268 118.929L193.169 126.4L200.76 125.712L201.065 118.257L193.268 118.929Z" fill="#A94847"/>
<path d="M193.172 136.903L193.172 143.656L200.732 143.332L200.755 136.556L193.172 136.903Z" fill="#A94847"/>
<path d="M193.225 154.384L193.232 161.849L200.732 162.015L200.752 154.214L193.225 154.384Z" fill="#A94847"/>
<path d="M292.457 248.518C292.457 250.178 292.158 251.566 291.56 252.682C290.962 253.791 290.095 254.628 288.96 255.193C287.83 255.751 286.459 256.029 284.844 256.029H280.889V241.289H285.283C286.764 241.289 288.04 241.565 289.109 242.116C290.178 242.66 291.002 243.47 291.58 244.546C292.165 245.615 292.457 246.939 292.457 248.518ZM290.673 248.579C290.673 247.255 290.454 246.162 290.016 245.302C289.584 244.442 288.946 243.803 288.103 243.386C287.266 242.963 286.239 242.751 285.024 242.751H282.583V254.557H284.645C286.651 254.557 288.156 254.057 289.159 253.055C290.168 252.054 290.673 250.562 290.673 248.579Z" fill="#B31A1A"/>
<path d="M300.671 244.778C301.601 244.778 302.398 244.986 303.062 245.403C303.727 245.82 304.235 246.404 304.587 247.157C304.939 247.903 305.115 248.777 305.115 249.779V250.817H297.572C297.592 252.114 297.911 253.102 298.529 253.781C299.146 254.46 300.017 254.799 301.139 254.799C301.83 254.799 302.441 254.736 302.973 254.608C303.504 254.48 304.055 254.292 304.627 254.043V255.515C304.075 255.764 303.527 255.945 302.983 256.06C302.445 256.174 301.807 256.231 301.07 256.231C300.02 256.231 299.103 256.016 298.32 255.586C297.542 255.149 296.938 254.51 296.506 253.67C296.074 252.83 295.858 251.802 295.858 250.585C295.858 249.395 296.054 248.367 296.446 247.5C296.845 246.626 297.403 245.954 298.12 245.483C298.844 245.013 299.695 244.778 300.671 244.778ZM300.651 246.149C299.768 246.149 299.063 246.441 298.539 247.026C298.014 247.611 297.702 248.427 297.602 249.476H303.381C303.374 248.817 303.272 248.239 303.072 247.742C302.88 247.238 302.584 246.848 302.185 246.572C301.787 246.29 301.275 246.149 300.651 246.149Z" fill="#B31A1A"/>
<path d="M310.609 256.029H308.945V240.342H310.609V256.029Z" fill="#B31A1A"/>
<path d="M316.78 244.979V256.029H315.126V244.979H316.78ZM315.973 240.846C316.246 240.846 316.478 240.936 316.671 241.118C316.87 241.293 316.97 241.568 316.97 241.945C316.97 242.314 316.87 242.59 316.671 242.771C316.478 242.953 316.246 243.044 315.973 243.044C315.688 243.044 315.449 242.953 315.256 242.771C315.07 242.59 314.977 242.314 314.977 241.945C314.977 241.568 315.07 241.293 315.256 241.118C315.449 240.936 315.688 240.846 315.973 240.846Z" fill="#B31A1A"/>
<path d="M323.709 256.029L319.564 244.979H321.338L323.739 251.664C323.905 252.121 324.075 252.625 324.247 253.176C324.42 253.727 324.54 254.171 324.606 254.507H324.676C324.755 254.171 324.888 253.727 325.074 253.176C325.26 252.618 325.43 252.114 325.582 251.664L327.984 244.979H329.757L325.602 256.029H323.709Z" fill="#B31A1A"/>
<path d="M336.736 244.778C337.666 244.778 338.463 244.986 339.127 245.403C339.792 245.82 340.3 246.404 340.652 247.157C341.004 247.903 341.18 248.777 341.18 249.779V250.817H333.637C333.657 252.114 333.976 253.102 334.594 253.781C335.211 254.46 336.082 254.799 337.204 254.799C337.895 254.799 338.506 254.736 339.038 254.608C339.569 254.48 340.12 254.292 340.692 254.043V255.515C340.14 255.764 339.592 255.945 339.048 256.06C338.51 256.174 337.872 256.231 337.134 256.231C336.085 256.231 335.168 256.016 334.384 255.586C333.607 255.149 333.003 254.51 332.571 253.67C332.139 252.83 331.923 251.802 331.923 250.585C331.923 249.395 332.119 248.367 332.511 247.5C332.91 246.626 333.468 245.954 334.185 245.483C334.909 245.013 335.759 244.778 336.736 244.778ZM336.716 246.149C335.833 246.149 335.128 246.441 334.604 247.026C334.079 247.611 333.767 248.427 333.667 249.476H339.446C339.439 248.817 339.336 248.239 339.137 247.742C338.945 247.238 338.649 246.848 338.25 246.572C337.852 246.29 337.34 246.149 336.716 246.149Z" fill="#B31A1A"/>
<path d="M349.972 244.778C350.191 244.778 350.42 244.791 350.659 244.818C350.898 244.838 351.111 244.868 351.297 244.909L351.088 246.461C350.908 246.414 350.709 246.377 350.49 246.351C350.271 246.324 350.065 246.31 349.872 246.31C349.434 246.31 349.019 246.401 348.627 246.582C348.241 246.757 347.903 247.013 347.61 247.349C347.318 247.678 347.089 248.078 346.923 248.548C346.757 249.012 346.674 249.53 346.674 250.101V256.029H345.01V244.979H346.385L346.564 247.016H346.634C346.86 246.606 347.132 246.233 347.451 245.897C347.77 245.554 348.139 245.282 348.557 245.08C348.982 244.879 349.454 244.778 349.972 244.778Z" fill="#B31A1A"/>
<path d="M352.656 244.979H354.43L356.841 251.392C356.98 251.768 357.11 252.131 357.229 252.481C357.349 252.823 357.455 253.153 357.548 253.469C357.641 253.785 357.714 254.09 357.768 254.386H357.837C357.93 254.05 358.063 253.61 358.236 253.065C358.409 252.514 358.595 251.953 358.794 251.382L361.076 244.979H362.859L358.106 257.653C357.854 258.332 357.558 258.923 357.22 259.427C356.887 259.931 356.482 260.318 356.004 260.587C355.526 260.862 354.948 261 354.27 261C353.958 261 353.682 260.98 353.443 260.94C353.204 260.906 352.998 260.866 352.825 260.819V259.478C352.972 259.511 353.148 259.541 353.354 259.568C353.566 259.595 353.785 259.609 354.011 259.609C354.423 259.609 354.778 259.528 355.077 259.367C355.383 259.212 355.645 258.984 355.864 258.681C356.084 258.379 356.273 258.019 356.432 257.602L357.03 256.05L352.656 244.979Z" fill="#B31A1A"/>
<path d="M95.2943 179.995C97.6161 179.995 99.4299 180.656 100.736 181.978C102.114 183.299 102.804 185.135 102.804 187.484C102.804 188.071 102.767 188.695 102.695 189.356C102.622 189.943 102.477 190.457 102.26 190.898C101.316 190.751 100.264 190.641 99.1034 190.567C97.9426 190.421 96.564 190.347 94.9678 190.347C91.7029 190.347 88.438 190.641 85.173 191.228C81.9081 191.815 78.7883 192.293 75.8135 192.66C72.5486 200.442 69.8641 207.747 67.76 214.574C65.6559 221.402 64.0235 228.157 62.8626 234.837C60.3958 234.25 58.2191 233.186 56.3327 231.644C54.4463 230.102 52.6687 227.936 51 225.146C51.5079 223.972 52.1246 222.577 52.8501 220.962C53.5757 219.273 54.4463 217.181 55.4621 214.685C56.4778 212.115 57.675 209.032 59.0535 205.434C60.5046 201.763 62.2096 197.395 64.1686 192.329C61.1213 191.302 59.1261 189.503 58.1829 186.933C58.5456 186.566 59.5614 186.162 61.2301 185.722C62.8989 185.208 64.9304 184.657 67.3247 184.07C68.413 181.207 69.3562 178.674 70.1543 176.471C70.9524 174.196 71.6779 172.066 72.3309 170.084C72.9839 168.029 73.5644 166.046 74.0722 164.137C74.6527 162.155 75.1605 160.063 75.5959 157.86H75.0517C72.2947 157.86 70.0455 157.2 68.3042 155.878C66.6354 154.557 65.8011 152.831 65.8011 150.702C65.8011 150.115 65.8736 149.417 66.0187 148.61C66.2364 147.802 66.4903 147.105 66.7805 146.518C68.1591 146.738 69.5013 146.885 70.8073 146.958C72.1858 147.031 73.9634 147.068 76.14 147.068C80.7109 147.068 84.9916 146.958 88.9821 146.738C92.9726 146.444 96.564 146.15 99.7564 145.857C103.021 145.563 105.815 145.306 108.136 145.086C110.458 144.792 112.236 144.645 113.469 144.645C115.138 144.645 116.625 145.526 117.931 147.288C119.237 149.05 120.253 151.547 120.979 154.777C118.657 154.557 116.77 154.41 115.319 154.336C113.941 154.263 112.707 154.226 111.619 154.226C107.919 154.226 104.509 154.41 101.389 154.777C98.3416 155.071 95.4394 155.438 92.6824 155.878C92.2471 156.539 91.7392 157.383 91.1587 158.411C90.6509 159.439 89.9616 160.907 89.0909 162.816C88.2203 164.651 87.0957 167.074 85.7172 170.084C84.4112 173.094 82.7425 176.912 80.7109 181.537C83.5405 181.097 86.2251 180.73 88.7645 180.436C91.3764 180.142 93.553 179.995 95.2943 179.995Z" fill="#404040"/>
<path d="M144.941 181.427C145.666 181.427 146.501 181.574 147.444 181.868C148.46 182.088 149.367 182.418 150.165 182.859C150.963 183.226 151.616 183.63 152.124 184.07C152.704 184.511 152.994 184.914 152.994 185.281C151.543 188.365 150.201 191.485 148.968 194.642C147.734 197.725 146.682 200.699 145.812 203.562C144.941 206.425 144.252 209.105 143.744 211.601C143.308 214.097 143.091 216.263 143.091 218.098C143.091 220.154 143.308 221.879 143.744 223.274C144.179 224.596 144.905 225.55 145.92 226.138C145.05 226.725 143.925 227.202 142.547 227.569C141.168 227.936 139.935 228.12 138.846 228.12C134.928 228.12 132.969 225.403 132.969 219.971C132.969 215.786 134.348 210.059 137.105 202.791C135.654 206.168 133.985 209.362 132.099 212.372C130.212 215.309 128.29 217.915 126.331 220.191C124.372 222.467 122.377 224.339 120.345 225.807C118.386 227.202 116.572 228.046 114.904 228.34C112.219 228.193 110.042 226.908 108.374 224.486C106.705 221.99 105.871 218.833 105.871 215.015C105.871 210.904 106.741 206.572 108.482 202.02C110.224 197.468 112.437 193.247 115.121 189.356C117.878 185.465 120.853 182.235 124.045 179.665C127.238 177.022 130.321 175.627 133.296 175.48C134.022 175.701 134.82 176.141 135.69 176.802C136.633 177.463 137.504 178.233 138.302 179.114C139.173 179.995 139.898 180.913 140.479 181.868C141.059 182.749 141.386 183.519 141.458 184.18C138.556 184.621 135.545 186.052 132.425 188.475C129.378 190.898 126.585 193.834 124.045 197.285C121.578 200.662 119.547 204.296 117.951 208.187C116.355 212.078 115.556 215.712 115.556 219.09C115.556 220.484 116.064 221.365 117.08 221.733C119.184 221.292 121.615 219.493 124.372 216.336C127.129 213.106 130.466 208.151 134.384 201.47C135.11 200.148 135.908 198.68 136.779 197.065C137.722 195.45 138.665 193.761 139.608 191.999C140.551 190.237 141.458 188.475 142.329 186.713C143.272 184.878 144.143 183.116 144.941 181.427Z" fill="#404040"/>
<path d="M221.42 192.109C220.259 192.183 218.844 192.953 217.175 194.422C215.506 195.817 213.693 197.652 211.734 199.928C209.847 202.13 207.852 204.59 205.748 207.306C203.716 210.023 201.721 212.739 199.762 215.455C197.876 218.098 196.098 220.595 194.429 222.944C192.761 225.293 191.346 227.165 190.185 228.56C188.589 227.9 187.21 226.945 186.049 225.697C184.889 224.376 184.054 222.76 183.546 220.852C183.909 218.576 184.417 216.226 185.07 213.804C185.723 211.307 186.557 208.738 187.573 206.095C188.661 203.452 189.967 200.699 191.491 197.836C193.087 194.899 195.01 191.815 197.259 188.585C196.171 188.659 194.683 189.466 192.797 191.008C190.911 192.476 188.879 194.422 186.702 196.844C184.526 199.194 182.277 201.873 179.955 204.884C177.633 207.82 175.456 210.72 173.425 213.583C170.74 217.401 168.491 220.741 166.677 223.605C164.936 226.468 163.666 228.157 162.868 228.67C160.982 227.276 159.676 225.77 158.95 224.155C158.225 222.54 157.681 220.741 157.318 218.759C157.39 216.997 157.644 214.795 158.08 212.152C158.588 209.509 159.277 206.792 160.148 204.003C161.816 198.643 163.957 193.32 166.569 188.034C169.253 182.749 171.829 177.903 174.296 173.498C176.327 173.939 178.141 174.636 179.737 175.59C181.406 176.545 183.147 177.94 184.961 179.775C184.236 182.051 183.111 184.474 181.587 187.043C180.064 189.54 178.467 192.183 176.799 194.972C175.13 197.762 173.606 200.625 172.228 203.562C170.849 206.499 169.942 209.472 169.507 212.482C171.539 209.545 173.933 206.168 176.69 202.351C179.52 198.533 182.385 194.936 185.288 191.558C188.262 188.181 191.201 185.318 194.103 182.969C197.005 180.619 199.617 179.445 201.939 179.445C202.809 179.445 203.753 179.592 204.768 179.885C205.784 180.179 206.727 180.546 207.598 180.987C208.469 181.427 209.194 181.868 209.775 182.308C210.355 182.675 210.682 182.969 210.754 183.189C210.391 184.657 209.521 186.676 208.142 189.246C206.836 191.742 205.421 194.385 203.898 197.175C202.374 199.965 200.959 202.681 199.653 205.324C198.347 207.894 197.586 209.949 197.368 211.491C200.923 206.572 204.26 202.13 207.38 198.166C210.5 194.128 213.439 190.677 216.196 187.814C218.953 184.951 221.492 182.749 223.814 181.207C226.208 179.665 228.457 178.894 230.561 178.894C232.012 178.894 233.355 179.298 234.588 180.106C235.894 180.84 236.801 181.941 237.309 183.409C236.656 185.612 235.568 188.255 234.044 191.338C232.593 194.422 231.106 197.689 229.582 201.139C228.058 204.516 226.68 207.857 225.446 211.161C224.285 214.464 223.705 217.438 223.705 220.081C223.705 221.622 223.923 222.65 224.358 223.164C224.793 223.605 225.41 223.825 226.208 223.825C227.079 223.825 227.877 223.678 228.602 223.384C229.401 223.017 229.981 222.834 230.344 222.834C230.779 223.127 231.033 223.495 231.106 223.935C231.178 224.376 231.214 224.779 231.214 225.146C229.763 226.321 228.276 227.276 226.752 228.01C225.229 228.817 223.524 229.221 221.637 229.221C219.896 229.221 218.445 228.927 217.284 228.34C216.196 227.753 215.289 226.945 214.563 225.917C213.838 224.889 213.33 223.715 213.04 222.393C212.749 221.072 212.604 219.64 212.604 218.098C212.604 215.602 212.931 213.143 213.584 210.72C214.237 208.224 214.999 205.875 215.869 203.672C216.812 201.396 217.792 199.304 218.808 197.395C219.823 195.413 220.694 193.651 221.42 192.109Z" fill="#404040"/>
<path d="M241.733 219.75C241.733 219.09 241.769 218.245 241.842 217.217C241.987 216.19 242.204 214.868 242.495 213.253C242.785 211.638 243.148 209.692 243.583 207.416C244.091 205.067 244.671 202.277 245.324 199.047C245.469 198.386 245.76 197.248 246.195 195.633C246.63 194.018 247.211 192.293 247.936 190.457C248.734 188.548 249.714 186.786 250.875 185.171C252.035 183.483 253.45 182.235 255.119 181.427C256.352 181.574 257.985 182.271 260.016 183.519C262.12 184.694 263.898 186.346 265.349 188.475C262.157 192.293 259.726 196.22 258.057 200.258C256.461 204.296 254.938 208.701 253.487 213.473C252.688 216.043 251.963 218.245 251.31 220.081C250.729 221.916 250.439 223.715 250.439 225.477C250.439 226.798 250.403 227.753 250.33 228.34C250.33 228.927 250.149 229.221 249.786 229.221C249.569 229.221 249.024 229.037 248.154 228.67C247.283 228.303 246.376 227.716 245.433 226.908C244.49 226.174 243.619 225.22 242.821 224.045C242.096 222.871 241.733 221.439 241.733 219.75ZM279.062 151.033C279.787 151.473 280.513 152.207 281.239 153.235C282.037 154.19 282.726 155.291 283.306 156.539C283.959 157.714 284.467 158.925 284.83 160.173C285.193 161.421 285.374 162.559 285.374 163.587C282.617 165.496 280.186 167.074 278.082 168.322C276.051 169.57 274.201 170.598 272.532 171.406C270.936 172.14 269.521 172.69 268.288 173.058C267.054 173.351 265.857 173.498 264.696 173.498C262.374 173.498 260.379 172.801 258.71 171.406C260.307 170.818 261.975 169.901 263.717 168.653C265.458 167.405 267.199 165.899 268.941 164.137C270.754 162.375 272.496 160.393 274.164 158.191C275.906 155.988 277.538 153.602 279.062 151.033Z" fill="#404040"/>
<path d="M270.851 218.869C270.851 215.639 271.613 211.124 273.137 205.324C274.66 199.451 276.801 192.623 279.558 184.841C284.056 172.434 288.264 162.119 292.182 153.896C296.172 145.6 300.054 139.139 303.827 134.514C304.698 134.661 305.75 135.028 306.983 135.615C308.289 136.203 309.559 136.863 310.792 137.597C312.026 138.258 313.114 138.956 314.057 139.69C315.073 140.424 315.726 141.011 316.016 141.452C310.357 148.206 305.387 155.474 301.106 163.256C296.825 171.039 292.908 179.959 289.352 190.017C286.305 198.68 283.983 206.499 282.387 213.473C280.791 220.374 279.993 226.138 279.993 230.763C279.993 232.011 279.993 232.782 279.993 233.075C279.993 233.369 280.029 233.663 280.102 233.956C279.086 233.81 278.215 233.553 277.49 233.186C276.764 232.818 276.293 232.378 276.075 231.864C275.93 231.497 275.531 230.946 274.878 230.212C274.225 229.551 273.644 229.037 273.137 228.67C272.484 228.23 271.939 227.092 271.504 225.257C271.069 223.348 270.851 221.219 270.851 218.869Z" fill="#404040"/>
<path d="M296.789 218.539C296.789 217.878 296.825 217.071 296.897 216.116C297.043 215.088 297.26 213.767 297.55 212.152C297.841 210.463 298.203 208.444 298.639 206.095C299.147 203.746 299.763 200.919 300.489 197.615C300.634 196.881 300.96 195.706 301.468 194.091C301.976 192.476 302.629 190.788 303.427 189.026C304.298 187.19 305.314 185.428 306.475 183.74C307.708 182.051 309.159 180.803 310.828 179.995C312.061 180.289 313.694 181.06 315.725 182.308C317.757 183.483 319.498 185.135 320.949 187.264C319.28 189.172 317.866 191.081 316.705 192.99C315.616 194.899 314.601 196.881 313.657 198.937C312.787 200.992 311.952 203.122 311.154 205.324C310.429 207.527 309.594 209.839 308.651 212.262C307.853 214.318 307.128 216.447 306.475 218.649C305.822 220.778 305.459 222.65 305.386 224.265C305.386 225.587 305.35 226.505 305.277 227.019C305.277 227.606 305.096 227.9 304.733 227.9C304.443 227.9 303.863 227.716 302.992 227.349C302.121 226.982 301.214 226.431 300.271 225.697C299.401 224.889 298.602 223.898 297.877 222.724C297.151 221.549 296.789 220.154 296.789 218.539ZM317.575 170.745C317.575 170.304 317.684 169.644 317.902 168.763C317.539 168.396 317.213 167.845 316.922 167.111C316.705 166.377 316.596 165.716 316.596 165.129C316.596 164.468 316.668 163.587 316.814 162.486C317.031 161.311 317.285 160.063 317.575 158.741C317.866 157.42 318.228 156.062 318.664 154.667C319.099 153.198 319.534 151.877 319.97 150.702C320.84 150.702 321.892 150.959 323.126 151.473C324.432 151.914 325.738 152.538 327.044 153.345C328.35 154.079 329.547 154.924 330.635 155.878C331.723 156.759 332.558 157.603 333.138 158.411C332.34 159.219 331.288 160.357 329.982 161.825C328.676 163.22 327.406 164.725 326.173 166.34C324.94 167.882 323.815 169.35 322.799 170.745C321.784 172.14 321.131 173.131 320.84 173.718C319.97 173.571 319.208 173.204 318.555 172.617C317.902 171.956 317.575 171.332 317.575 170.745Z" fill="#404040"/>
<path d="M359.946 181.427C360.672 181.427 361.506 181.574 362.45 181.868C363.465 182.088 364.372 182.418 365.17 182.859C365.968 183.226 366.621 183.63 367.129 184.07C367.71 184.511 368 184.914 368 185.281C366.549 188.365 365.207 191.485 363.973 194.642C362.74 197.725 361.688 200.699 360.817 203.562C359.946 206.425 359.257 209.105 358.749 211.601C358.314 214.097 358.096 216.263 358.096 218.098C358.096 220.154 358.314 221.879 358.749 223.274C359.185 224.596 359.91 225.55 360.926 226.138C360.055 226.725 358.931 227.202 357.552 227.569C356.174 227.936 354.94 228.12 353.852 228.12C349.934 228.12 347.975 225.403 347.975 219.971C347.975 215.786 349.354 210.059 352.111 202.791C350.66 206.168 348.991 209.362 347.104 212.372C345.218 215.309 343.295 217.915 341.336 220.191C339.377 222.467 337.382 224.339 335.351 225.807C333.392 227.202 331.578 228.046 329.909 228.34C327.225 228.193 325.048 226.908 323.379 224.486C321.71 221.99 320.876 218.833 320.876 215.015C320.876 210.904 321.747 206.572 323.488 202.02C325.229 197.468 327.442 193.247 330.127 189.356C332.884 185.465 335.858 182.235 339.051 179.665C342.243 177.022 345.327 175.627 348.302 175.48C349.027 175.701 349.825 176.141 350.696 176.802C351.639 177.463 352.51 178.233 353.308 179.114C354.178 179.995 354.904 180.913 355.484 181.868C356.065 182.749 356.391 183.519 356.464 184.18C353.562 184.621 350.551 186.052 347.431 188.475C344.384 190.898 341.59 193.834 339.051 197.285C336.584 200.662 334.553 204.296 332.956 208.187C331.36 212.078 330.562 215.712 330.562 219.09C330.562 220.484 331.07 221.365 332.086 221.733C334.19 221.292 336.62 219.493 339.377 216.336C342.134 213.106 345.472 208.151 349.39 201.47C350.115 200.148 350.913 198.68 351.784 197.065C352.727 195.45 353.671 193.761 354.614 191.999C355.557 190.237 356.464 188.475 357.335 186.713C358.278 184.878 359.148 183.116 359.946 181.427Z" fill="#404040"/>
<path d="M458.445 47.0117C457.625 47.0117 456.891 47.1602 456.242 47.457C455.602 47.7539 455.059 48.1836 454.613 48.7461C454.168 49.3008 453.828 49.9766 453.594 50.7734C453.359 51.5625 453.242 52.4531 453.242 53.4453C453.242 54.7734 453.43 55.918 453.805 56.8789C454.18 57.832 454.75 58.5664 455.516 59.082C456.281 59.5898 457.25 59.8438 458.422 59.8438C459.148 59.8438 459.855 59.7734 460.543 59.6328C461.23 59.4922 461.941 59.3008 462.676 59.0586V61.4492C461.98 61.7227 461.277 61.9219 460.566 62.0469C459.855 62.1719 459.035 62.2344 458.105 62.2344C456.355 62.2344 454.902 61.8711 453.746 61.1445C452.598 60.418 451.738 59.3945 451.168 58.0742C450.605 56.7539 450.324 55.207 450.324 53.4336C450.324 52.1367 450.504 50.9492 450.863 49.8711C451.223 48.793 451.746 47.8633 452.434 47.082C453.121 46.293 453.969 45.6875 454.977 45.2656C455.992 44.8359 457.152 44.6211 458.457 44.6211C459.316 44.6211 460.16 44.7188 460.988 44.9141C461.824 45.1016 462.598 45.3711 463.309 45.7227L462.324 48.043C461.73 47.7617 461.109 47.5195 460.461 47.3164C459.812 47.1133 459.141 47.0117 458.445 47.0117ZM461.434 95L459.758 90.2422H453.207L451.531 95H448.566L454.941 77.7969H458.059L464.422 95H461.434ZM459.031 87.8281L457.402 83.1406C457.34 82.9375 457.25 82.6523 457.133 82.2852C457.016 81.9102 456.898 81.5312 456.781 81.1484C456.664 80.7578 456.566 80.4297 456.488 80.1641C456.41 80.4844 456.312 80.8438 456.195 81.2422C456.086 81.6328 455.977 82 455.867 82.3438C455.766 82.6875 455.688 82.9531 455.633 83.1406L453.992 87.8281H459.031ZM455.902 110.867C457.379 110.867 458.598 111.047 459.559 111.406C460.527 111.766 461.246 112.312 461.715 113.047C462.191 113.781 462.43 114.715 462.43 115.848C462.43 116.691 462.273 117.41 461.961 118.004C461.648 118.598 461.238 119.09 460.73 119.48C460.223 119.871 459.68 120.184 459.102 120.418L463.965 128H460.789L456.652 121.133H453.898V128H451.086V110.867H455.902ZM455.715 113.211H453.898V118.812H455.844C457.148 118.812 458.094 118.57 458.68 118.086C459.273 117.602 459.57 116.887 459.57 115.941C459.57 114.949 459.254 114.246 458.621 113.832C457.996 113.418 457.027 113.211 455.715 113.211ZM463.859 152.27C463.859 154.199 463.5 155.812 462.781 157.109C462.062 158.398 461.02 159.371 459.652 160.027C458.285 160.676 456.637 161 454.707 161H449.949V143.867H455.223C456.996 143.867 458.527 144.188 459.816 144.828C461.105 145.461 462.102 146.402 462.805 147.652C463.508 148.895 463.859 150.434 463.859 152.27ZM460.93 152.352C460.93 150.945 460.707 149.789 460.262 148.883C459.824 147.977 459.176 147.305 458.316 146.867C457.465 146.422 456.414 146.199 455.164 146.199H452.762V158.645H454.754C456.824 158.645 458.371 158.117 459.395 157.062C460.418 156.008 460.93 154.438 460.93 152.352ZM461.434 194L459.758 189.242H453.207L451.531 194H448.566L454.941 176.797H458.059L464.422 194H461.434ZM459.031 186.828L457.402 182.141C457.34 181.938 457.25 181.652 457.133 181.285C457.016 180.91 456.898 180.531 456.781 180.148C456.664 179.758 456.566 179.43 456.488 179.164C456.41 179.484 456.312 179.844 456.195 180.242C456.086 180.633 455.977 181 455.867 181.344C455.766 181.688 455.688 181.953 455.633 182.141L453.992 186.828H459.031ZM456.348 209.867C458.559 209.867 460.172 210.32 461.188 211.227C462.203 212.133 462.711 213.402 462.711 215.035C462.711 215.777 462.594 216.484 462.359 217.156C462.133 217.82 461.758 218.41 461.234 218.926C460.711 219.434 460.02 219.836 459.16 220.133C458.309 220.43 457.258 220.578 456.008 220.578H454.18V227H451.367V209.867H456.348ZM456.16 212.199H454.18V218.234H455.715C456.598 218.234 457.348 218.133 457.965 217.93C458.582 217.719 459.051 217.387 459.371 216.934C459.691 216.48 459.852 215.883 459.852 215.141C459.852 214.148 459.551 213.41 458.949 212.926C458.355 212.441 457.426 212.199 456.16 212.199ZM455.082 260V242.867H457.895V260H455.082ZM464.516 284.41C464.516 285.73 464.348 286.934 464.012 288.02C463.684 289.098 463.188 290.027 462.523 290.809C461.859 291.582 461.027 292.18 460.027 292.602C459.027 293.023 457.855 293.234 456.512 293.234C455.145 293.234 453.957 293.023 452.949 292.602C451.949 292.18 451.117 291.578 450.453 290.797C449.797 290.016 449.305 289.082 448.977 287.996C448.648 286.91 448.484 285.707 448.484 284.387C448.484 282.621 448.773 281.082 449.352 279.77C449.938 278.449 450.824 277.426 452.012 276.699C453.207 275.965 454.715 275.598 456.535 275.598C458.316 275.598 459.797 275.961 460.977 276.688C462.156 277.414 463.039 278.438 463.625 279.758C464.219 281.07 464.516 282.621 464.516 284.41ZM451.438 284.41C451.438 285.73 451.617 286.875 451.977 287.844C452.336 288.805 452.887 289.547 453.629 290.07C454.379 290.586 455.34 290.844 456.512 290.844C457.691 290.844 458.652 290.586 459.395 290.07C460.137 289.547 460.684 288.805 461.035 287.844C461.387 286.875 461.562 285.73 461.562 284.41C461.562 282.402 461.16 280.832 460.355 279.699C459.559 278.559 458.285 277.988 456.535 277.988C455.363 277.988 454.398 278.246 453.641 278.762C452.891 279.277 452.336 280.016 451.977 280.977C451.617 281.93 451.438 283.074 451.438 284.41Z" fill="#F9F9F9"/>
</svg>
