<svg width="125" height="84" viewBox="0 0 125 84" fill="none" xmlns="http://www.w3.org/2000/svg">
<path d="M60.8905 0C60.8905 0 60.0883 1.02889 60.5103 2.50076C61.3261 5.34618 62.8864 7.64657 62.9972 9.25764C63.0923 10.6683 62.6329 11.3817 61.8409 12.3435C61.0489 13.3053 59.845 14.3954 59.845 14.3954C59.845 14.3954 60.9221 12.8886 60.9538 11.3496C60.9855 9.81069 58.7678 5.73893 58.5144 4.61679C58.2609 3.49466 58.1078 2.74755 58.9262 1.69924C59.6357 0.790596 60.8905 0 60.8905 0Z" fill="#4B4B4B"/>
<path d="M57.3365 4.58085C57.3365 4.58085 56.7751 5.30094 57.0704 6.33106C57.6414 8.32249 58.7334 9.93246 58.811 11.06C58.8775 12.0473 58.556 12.5466 58.0017 13.2197C57.4474 13.8929 56.6048 14.6558 56.6048 14.6558C56.6048 14.6558 57.3587 13.6012 57.3808 12.5241C57.403 11.4471 55.8509 8.59737 55.6735 7.81201C55.4962 7.02666 55.389 6.50378 55.9618 5.7701C56.4583 5.13417 57.3365 4.58085 57.3365 4.58085Z" fill="#4B4B4B"/>
<path d="M50.1823 16.7359L50.214 18.8679L59.0371 17.313L59.0213 15.213L50.1823 16.7359Z" fill="#808080"/>
<path d="M59.0213 15.213L59.0371 17.313L67.8603 18.8038L67.8444 16.7519L59.0213 15.213Z" fill="#4B4B4B"/>
<path d="M59.1005 17.858L59.0926 21.6733L74.5608 23.9977L74.5529 20.5351L59.1005 17.858Z" fill="#4B4B4B"/>
<path d="M59.0411 22.2584L59.0807 23.3324L73.3767 25.4805L73.3371 24.3744L59.0411 22.2584Z" fill="#4B4B4B"/>
<path d="M43.4783 20.4908L43.5338 23.9694L59.0926 21.6733L59.1005 17.858L43.4783 20.4908Z" fill="#808080"/>
<path d="M44.7411 24.4546L44.7332 25.4164L59.0807 23.3324L59.0411 22.2584L44.7411 24.4546Z" fill="#808080"/>
<path d="M70.2601 25.6408L70.2997 28.4141L71.8125 28.5905L71.8679 25.9134L70.2601 25.6408Z" fill="#872D2D"/>
<path d="M62.5893 24.5428L62.5814 27.4603L69.5592 28.2618L69.6146 25.5847L62.5893 24.5428Z" fill="#872D2D"/>
<path d="M59.0886 23.9496L59.0807 27.0595L61.9241 27.3481L61.932 24.4145L59.0886 23.9496Z" fill="#872D2D"/>
<path d="M70.2086 32.0931L70.2007 34.6901L71.8402 34.7221L71.8165 32.2374L70.2086 32.0931Z" fill="#872D2D"/>
<path d="M70.2403 38.4252L70.2324 41.3908L71.8877 41.3588L71.8798 38.4252H70.2403Z" fill="#872D2D"/>
<path d="M70.2086 45.0939L70.2166 47.9313L71.8402 47.8672L71.8165 45.126L70.2086 45.0939Z" fill="#872D2D"/>
<path d="M66.4543 28.591L66.536 31.1912L71.7664 31.5619L71.8667 29.1342L66.4543 28.591Z" fill="#872D2D"/>
<path d="M59.1737 27.7068L59.0538 30.6471L65.7851 31.1992L65.8854 28.4541L59.1737 27.7068Z" fill="#872D2D"/>
<path d="M62.6012 31.5608L62.5373 34.433L69.5486 34.6451L69.5929 32.002L62.6012 31.5608Z" fill="#872D2D"/>
<path d="M66.4991 35.1315L66.4576 37.7996L71.8112 37.853L71.8219 35.312L66.4991 35.1315Z" fill="#872D2D"/>
<path d="M59.0518 34.9234L59.0426 37.5956L65.8635 37.7623L65.863 35.1646L59.0518 34.9234Z" fill="#872D2D"/>
<path d="M62.5228 38.2713L62.4925 41.3476L69.6271 41.333L69.6041 38.3498L62.5228 38.2713Z" fill="#872D2D"/>
<path d="M66.4655 41.9326L66.4464 44.6575L71.8336 44.4842L71.8219 41.9431L66.4655 41.9326Z" fill="#872D2D"/>
<path d="M59.0505 41.8873L59.0426 44.9635L65.8635 44.6542L65.8406 41.9431L59.0505 41.8873Z" fill="#872D2D"/>
<path d="M62.5564 45.4126L62.5597 48.3755L69.5822 47.9755L69.5817 45.1963L62.5564 45.4126Z" fill="#872D2D"/>
<path d="M59.0443 31.3254L59.0403 34.3753L61.8639 34.4434L61.8758 31.5258L59.0443 31.3254Z" fill="#872D2D"/>
<path d="M59.062 38.2476L59.0699 41.2413L61.8618 41.2453L61.8618 38.2717L59.062 38.2476Z" fill="#872D2D"/>
<path d="M59.0271 45.4728L59.039 48.5507L61.8824 48.3904L61.8586 45.4528L59.0271 45.4728Z" fill="#872D2D"/>
<path d="M46.2543 25.8667L46.2688 28.5689L51.4992 27.9421L51.4818 25.112L46.2543 25.8667Z" fill="#A94847"/>
<path d="M48.7249 28.887L48.7329 31.4199L55.473 30.9389L55.5126 28.0935L48.7249 28.887Z" fill="#A94847"/>
<path d="M46.2261 32.1613L46.234 34.6941L51.5644 34.5498L51.5406 31.8246L46.2261 32.1613Z" fill="#A94847"/>
<path d="M48.7131 35.2471L48.6893 37.788L55.477 37.6918L55.4849 35.0708L48.7131 35.2471Z" fill="#A94847"/>
<path d="M52.1584 31.7365L52.1742 34.5819L59.0403 34.3753L59.0443 31.3254L52.1584 31.7365Z" fill="#A94847"/>
<path d="M52.198 24.9876L52.1821 27.8491L59.0807 27.0595L59.0886 23.9496L52.198 24.9876Z" fill="#A94847"/>
<path d="M46.2499 38.4372L46.2103 41.3468L51.5327 41.3548L51.5485 38.3811L46.2499 38.4372Z" fill="#A94847"/>
<path d="M52.1821 38.3811L52.198 41.3227L59.0699 41.2413L59.062 38.2476L52.1821 38.3811Z" fill="#A94847"/>
<path d="M48.4913 41.98L48.4596 44.5929L55.4532 44.7933L55.5007 41.9559L48.4913 41.98Z" fill="#A94847"/>
<path d="M46.2499 45.0899L46.2578 47.8552L51.5327 48.1678L51.5248 45.2823L46.2499 45.0899Z" fill="#A94847"/>
<path d="M52.1505 45.2983L52.1663 48.1998L59.039 48.5507L59.0271 45.4728L52.1505 45.2983Z" fill="#A94847"/>
<path d="M46.2853 29.1938L46.2602 31.5594L48.0572 31.4096L48.0359 29.0042L46.2853 29.1938Z" fill="#A94847"/>
<path d="M46.2715 35.3053L46.2385 37.8072L48.0473 37.7816L48.0458 35.3121L46.2715 35.3053Z" fill="#A94847"/>
<path d="M46.2121 41.942L46.2107 44.4999L47.8651 44.5344L47.8557 41.9528L46.2121 41.942Z" fill="#A94847"/>
<path d="M56.0996 27.9719L56.0605 30.9184L59.0538 30.6471L59.1737 27.7068L56.0996 27.9719Z" fill="#A94847"/>
<path d="M56.0616 35.0603L56.0617 37.7234L59.0426 37.5956L59.0518 34.9234L56.0616 35.0603Z" fill="#A94847"/>
<path d="M56.0824 41.9545L56.0853 44.8981L59.0426 44.9635L59.0505 41.8873L56.0824 41.9545Z" fill="#A94847"/>
<path d="M95.2117 79.0776C95.2117 79.7323 95.0938 80.2797 94.8581 80.7197C94.6223 81.1571 94.2805 81.4871 93.8326 81.7098C93.3873 81.9298 92.8465 82.0398 92.21 82.0398H90.6502V76.2268H92.3828C92.9669 76.2268 93.4698 76.3354 93.8916 76.5528C94.3133 76.7675 94.6381 77.0869 94.8659 77.511C95.0964 77.9325 95.2117 78.4547 95.2117 79.0776ZM94.5084 79.1015C94.5084 78.5793 94.422 78.1485 94.2491 77.8092C94.0788 77.47 93.8274 77.2181 93.4947 77.0538C93.1647 76.8868 92.76 76.8033 92.2807 76.8033H91.3181V81.4593H92.1314C92.9224 81.4593 93.5157 81.2618 93.9112 80.8669C94.3093 80.4719 94.5084 79.8834 94.5084 79.1015Z" fill="#B31A1A"/>
<path d="M98.4507 77.6025C98.8174 77.6025 99.1317 77.6847 99.3936 77.849C99.6556 78.0134 99.8559 78.244 99.9948 78.5408C100.134 78.8351 100.203 79.1797 100.203 79.5746V79.9842H97.2288C97.2367 80.4958 97.3624 80.8854 97.606 81.1531C97.8496 81.4209 98.1927 81.5547 98.6354 81.5547C98.9078 81.5547 99.1487 81.5295 99.3583 81.4792C99.5678 81.4288 99.7852 81.3546 100.01 81.2565V81.837C99.7931 81.9351 99.577 82.0067 99.3622 82.0517C99.15 82.0968 98.8986 82.1193 98.6079 82.1193C98.194 82.1193 97.8325 82.0345 97.5235 81.8648C97.217 81.6926 96.9787 81.4407 96.8084 81.1094C96.6381 80.7781 96.553 80.3725 96.553 79.8927C96.553 79.4235 96.6303 79.018 96.7848 78.676C96.942 78.3314 97.162 78.0664 97.4449 77.8808C97.7304 77.6953 98.0657 77.6025 98.4507 77.6025ZM98.4428 78.1432C98.0945 78.1432 97.8168 78.2585 97.6099 78.4892C97.403 78.7198 97.2799 79.0418 97.2406 79.4553H99.5194C99.5167 79.1956 99.4762 78.9676 99.3976 78.7715C99.3216 78.5727 99.2051 78.4189 99.0479 78.3102C98.8907 78.1989 98.6891 78.1432 98.4428 78.1432Z" fill="#B31A1A"/>
<path d="M102.369 82.0398H101.713V75.853H102.369V82.0398Z" fill="#B31A1A"/>
<path d="M104.803 77.682V82.0398H104.151V77.682H104.803ZM104.485 76.0518C104.592 76.0518 104.684 76.0876 104.76 76.1592C104.838 76.2281 104.878 76.3368 104.878 76.4852C104.878 76.631 104.838 76.7397 104.76 76.8112C104.684 76.8828 104.592 76.9186 104.485 76.9186C104.372 76.9186 104.278 76.8828 104.202 76.8112C104.129 76.7397 104.092 76.631 104.092 76.4852C104.092 76.3368 104.129 76.2281 104.202 76.1592C104.278 76.0876 104.372 76.0518 104.485 76.0518Z" fill="#B31A1A"/>
<path d="M107.535 82.0398L105.901 77.682H106.6L107.547 80.3182C107.612 80.4984 107.679 80.6972 107.747 80.9146C107.815 81.1319 107.863 81.3069 107.889 81.4394H107.916C107.948 81.3069 108 81.1319 108.073 80.9146C108.147 80.6946 108.214 80.4958 108.274 80.3182L109.221 77.682H109.92L108.282 82.0398H107.535Z" fill="#B31A1A"/>
<path d="M112.672 77.6025C113.039 77.6025 113.353 77.6847 113.615 77.849C113.877 78.0134 114.077 78.244 114.216 78.5408C114.355 78.8351 114.424 79.1797 114.424 79.5746V79.9842H111.45C111.458 80.4958 111.584 80.8854 111.827 81.1531C112.071 81.4209 112.414 81.5547 112.857 81.5547C113.129 81.5547 113.37 81.5295 113.579 81.4792C113.789 81.4288 114.006 81.3546 114.232 81.2565V81.837C114.014 81.9351 113.798 82.0067 113.583 82.0517C113.371 82.0968 113.12 82.1193 112.829 82.1193C112.415 82.1193 112.054 82.0345 111.745 81.8648C111.438 81.6926 111.2 81.4407 111.03 81.1094C110.859 80.7781 110.774 80.3725 110.774 79.8927C110.774 79.4235 110.851 79.018 111.006 78.676C111.163 78.3314 111.383 78.0664 111.666 77.8808C111.952 77.6953 112.287 77.6025 112.672 77.6025ZM112.664 78.1432C112.316 78.1432 112.038 78.2585 111.831 78.4892C111.624 78.7198 111.501 79.0418 111.462 79.4553H113.741C113.738 79.1956 113.697 78.9676 113.619 78.7715C113.543 78.5727 113.426 78.4189 113.269 78.3102C113.112 78.1989 112.91 78.1432 112.664 78.1432Z" fill="#B31A1A"/>
<path d="M117.891 77.6025C117.978 77.6025 118.068 77.6078 118.162 77.6184C118.257 77.6264 118.34 77.6383 118.414 77.6542L118.331 78.2665C118.26 78.2479 118.182 78.2334 118.095 78.2228C118.009 78.2122 117.928 78.2069 117.852 78.2069C117.679 78.2069 117.515 78.2426 117.361 78.3142C117.209 78.3831 117.075 78.4839 116.96 78.6164C116.845 78.7463 116.754 78.904 116.689 79.0895C116.623 79.2724 116.591 79.4765 116.591 79.7019V82.0398H115.934V77.682H116.477L116.547 78.4852H116.575C116.664 78.3235 116.771 78.1764 116.897 78.0438C117.023 77.9087 117.168 77.8013 117.333 77.7218C117.501 77.6423 117.687 77.6025 117.891 77.6025Z" fill="#B31A1A"/>
<path d="M118.95 77.682H119.649L120.6 80.2108C120.655 80.3592 120.706 80.5024 120.753 80.6402C120.8 80.7754 120.842 80.9053 120.879 81.0299C120.915 81.1545 120.944 81.2751 120.965 81.3917H120.993C121.029 81.2592 121.082 81.0855 121.15 80.8708C121.218 80.6535 121.291 80.4321 121.37 80.2068L122.27 77.682H122.973L121.099 82.6799C120.999 82.9477 120.883 83.1809 120.749 83.3797C120.618 83.5785 120.458 83.7309 120.27 83.837C120.081 83.9457 119.853 84 119.586 84C119.463 84 119.354 83.9921 119.26 83.9761C119.166 83.9629 119.084 83.947 119.016 83.9284V83.3996C119.074 83.4129 119.143 83.4248 119.225 83.4354C119.308 83.446 119.395 83.4513 119.484 83.4513C119.646 83.4513 119.786 83.4195 119.904 83.3559C120.025 83.2949 120.128 83.2048 120.215 83.0855C120.301 82.9662 120.376 82.8244 120.439 82.6601L120.674 82.0477L118.95 77.682Z" fill="#B31A1A"/>
<path d="M17.4662 52.0545C18.3817 52.0545 19.097 52.3151 19.6119 52.8363C20.1555 53.3574 20.4273 54.0812 20.4273 55.0077C20.4273 55.2393 20.413 55.4854 20.3844 55.746C20.3558 55.9776 20.2986 56.1803 20.2127 56.354C19.8408 56.2961 19.426 56.2527 18.9682 56.2237C18.5105 56.1658 17.9669 56.1369 17.3375 56.1369C16.05 56.1369 14.7626 56.2527 13.4752 56.4843C12.1877 56.7159 10.9575 56.9041 9.78452 57.0489C8.49708 60.1179 7.43852 62.9987 6.60884 65.6913C5.77916 68.384 5.13544 71.0476 4.67769 73.6824C3.70496 73.4507 2.84666 73.0309 2.10281 72.4229C1.35896 71.8149 0.658023 70.9608 0 69.8606C0.200268 69.3973 0.44345 68.8472 0.729547 68.2103C1.01564 67.5443 1.35896 66.7192 1.7595 65.7348C2.16003 64.7214 2.63209 63.5054 3.17568 62.0867C3.74787 60.6391 4.4202 58.9164 5.19266 56.9186C3.99105 56.5133 3.20429 55.8039 2.83236 54.7906C2.97541 54.6458 3.37594 54.4866 4.03397 54.3129C4.69199 54.1102 5.49306 53.893 6.43718 53.6614C6.86633 52.5322 7.23825 51.5334 7.55296 50.6648C7.86767 49.7672 8.15376 48.9276 8.41125 48.1459C8.66874 47.3352 8.89762 46.5535 9.09788 45.8007C9.32676 45.019 9.52703 44.1938 9.69869 43.3252H9.48411C8.39694 43.3252 7.51004 43.0646 6.82341 42.5435C6.16539 42.0223 5.83638 41.3419 5.83638 40.5023C5.83638 40.2707 5.86499 39.9956 5.92221 39.6772C6.00804 39.3587 6.10817 39.0836 6.22261 38.852C6.76619 38.9389 7.29547 38.9968 7.81045 39.0257C8.35403 39.0547 9.05497 39.0691 9.91326 39.0691C11.7157 39.0691 13.4036 39.0257 14.9772 38.9389C16.5507 38.823 17.9669 38.7072 19.2257 38.5914C20.5132 38.4756 21.6146 38.3743 22.5301 38.2874C23.4456 38.1716 24.1466 38.1137 24.6329 38.1137C25.291 38.1137 25.8775 38.4611 26.3924 39.156C26.9074 39.8509 27.308 40.8353 27.594 42.1092C26.6785 42.0223 25.9347 41.9644 25.3625 41.9355C24.8189 41.9065 24.3325 41.8921 23.9034 41.8921C22.4443 41.8921 21.0996 41.9644 19.8694 42.1092C18.6678 42.225 17.5234 42.3698 16.4363 42.5435C16.2646 42.8041 16.0643 43.137 15.8355 43.5424C15.6352 43.9477 15.3634 44.5268 15.0201 45.2795C14.6768 46.0034 14.2333 46.9588 13.6897 48.1459C13.1748 49.333 12.5167 50.8385 11.7157 52.6625C12.8314 52.4888 13.89 52.3441 14.8913 52.2282C15.9213 52.1124 16.7796 52.0545 17.4662 52.0545Z" fill="#404040"/>
<path d="M37.043 52.6191C37.3291 52.6191 37.6581 52.677 38.03 52.7928C38.4305 52.8797 38.7882 53.01 39.1029 53.1837C39.4176 53.3285 39.675 53.4877 39.8753 53.6614C40.1042 53.8351 40.2186 53.9944 40.2186 54.1391C39.6464 55.3552 39.1172 56.5857 38.6308 57.8306C38.1444 59.0467 37.7296 60.2192 37.3863 61.3484C37.043 62.4776 36.7712 63.5344 36.5709 64.5188C36.3992 65.5032 36.3134 66.3573 36.3134 67.0811C36.3134 67.8918 36.3992 68.5722 36.5709 69.1223C36.7426 69.6434 37.0287 70.0198 37.4292 70.2514C37.0859 70.4831 36.6424 70.6712 36.0988 70.816C35.5553 70.9608 35.0689 71.0332 34.6397 71.0332C33.0948 71.0332 32.3224 69.9619 32.3224 67.8194C32.3224 66.1691 32.8659 63.9107 33.9531 61.0444C33.3809 62.3762 32.7229 63.6357 31.979 64.8228C31.2352 65.9809 30.477 67.0087 29.7046 67.9062C28.9321 68.8038 28.1453 69.5421 27.3443 70.1211C26.5718 70.6712 25.8566 71.0042 25.1985 71.12C24.14 71.0621 23.2817 70.5554 22.6237 69.6C21.9657 68.6156 21.6366 67.3706 21.6366 65.8651C21.6366 64.2437 21.98 62.5355 22.6666 60.7404C23.3532 58.9453 24.2258 57.2805 25.2844 55.746C26.3715 54.2115 27.5445 52.9376 28.8034 51.9242C30.0622 50.8819 31.2781 50.3318 32.4511 50.2739C32.7372 50.3608 33.0519 50.5345 33.3952 50.7951C33.7672 51.0557 34.1105 51.3597 34.4252 51.7071C34.7685 52.0545 35.0546 52.4164 35.2835 52.7928C35.5123 53.1403 35.6411 53.4443 35.6697 53.7048C34.5253 53.8786 33.338 54.4431 32.1078 55.3986C30.9062 56.354 29.8047 57.5121 28.8034 58.8729C27.8306 60.2048 27.0296 61.6379 26.4002 63.1724C25.7707 64.7069 25.456 66.1401 25.456 67.472C25.456 68.0221 25.6563 68.3695 26.0568 68.5143C26.8865 68.3405 27.8449 67.6312 28.9321 66.3862C30.0193 65.1123 31.3353 63.158 32.8802 60.5233C33.1663 60.0021 33.4811 59.423 33.8244 58.7861C34.1963 58.1491 34.5682 57.4832 34.9401 56.7883C35.3121 56.0935 35.6697 55.3986 36.013 54.7037C36.3849 53.9799 36.7283 53.285 37.043 52.6191Z" fill="#404040"/>
<path d="M67.2001 56.8318C66.7424 56.8607 66.1845 57.1647 65.5265 57.7438C64.8685 58.2939 64.1532 59.0177 63.3808 59.9152C62.6369 60.7838 61.8501 61.7537 61.0205 62.825C60.2194 63.8963 59.4326 64.9675 58.6602 66.0388C57.9163 67.0811 57.2154 68.0655 56.5573 68.992C55.8993 69.9185 55.3414 70.6568 54.8837 71.2069C54.2543 70.9463 53.7107 70.5699 53.2529 70.0777C52.7952 69.5566 52.4662 68.9196 52.2659 68.1668C52.4089 67.2693 52.6092 66.3428 52.8667 65.3873C53.1242 64.4029 53.4532 63.3896 53.8537 62.3473C54.2829 61.305 54.7978 60.2192 55.3986 59.0901C56.0281 57.932 56.7862 56.7159 57.6731 55.442C57.244 55.471 56.6575 55.7895 55.9136 56.3975C55.1698 56.9765 54.3687 57.7438 53.5104 58.6992C52.6521 59.6257 51.7652 60.6825 50.8497 61.8696C49.9342 63.0277 49.0759 64.1713 48.2748 65.3005C47.2163 66.806 46.3294 68.1234 45.6141 69.2526C44.9275 70.3817 44.4268 71.0476 44.1121 71.2503C43.3683 70.7002 42.8533 70.1067 42.5672 69.4697C42.2811 68.8327 42.0665 68.1234 41.9235 67.3417C41.9521 66.6468 42.0522 65.7782 42.2239 64.7359C42.4242 63.6936 42.6959 62.6223 43.0393 61.5221C43.6973 59.4086 44.5413 57.3095 45.5712 55.2249C46.6298 53.1403 47.6454 51.2294 48.6181 49.4922C49.4192 49.6659 50.1345 49.941 50.7639 50.3173C51.4219 50.6937 52.1085 51.2438 52.8238 51.9677C52.5377 52.8652 52.0942 53.8207 51.4934 54.834C50.8926 55.8184 50.2632 56.8607 49.6052 57.9609C48.9472 59.0611 48.3464 60.1903 47.8028 61.3484C47.2592 62.5065 46.9016 63.6791 46.7299 64.8662C47.531 63.7081 48.4751 62.3762 49.5623 60.8707C50.678 59.3651 51.8081 57.9464 52.9525 56.6146C54.1255 55.2828 55.2842 54.1536 56.4286 53.2271C57.573 52.3006 58.6029 51.8374 59.5184 51.8374C59.8618 51.8374 60.2337 51.8953 60.6342 52.0111C61.0348 52.1269 61.4067 52.2717 61.75 52.4454C62.0933 52.6191 62.3794 52.7928 62.6083 52.9665C62.8372 53.1113 62.9659 53.2271 62.9945 53.314C62.8515 53.893 62.5082 54.6892 61.9646 55.7026C61.4496 56.687 60.8917 57.7293 60.2909 58.8295C59.6901 59.9297 59.1322 61.001 58.6172 62.0433C58.1023 63.0566 57.8019 63.8673 57.716 64.4753C59.1179 62.5355 60.434 60.7838 61.6642 59.2204C62.8944 57.628 64.0531 56.2672 65.1403 55.138C66.2274 54.0089 67.2288 53.1403 68.1443 52.5322C69.0884 51.9242 69.9753 51.6202 70.805 51.6202C71.3772 51.6202 71.9064 51.7795 72.3928 52.098C72.9078 52.3875 73.2654 52.8218 73.4657 53.4008C73.2082 54.2694 72.779 55.3117 72.1782 56.5278C71.606 57.7438 71.0195 59.0322 70.4187 60.393C69.8179 61.7248 69.2743 63.0422 68.788 64.345C68.3302 65.6479 68.1014 66.8205 68.1014 67.8628C68.1014 68.4708 68.1872 68.8762 68.3588 69.0788C68.5305 69.2526 68.7737 69.3394 69.0884 69.3394C69.4317 69.3394 69.7464 69.2815 70.0325 69.1657C70.3472 69.0209 70.5761 68.9486 70.7191 68.9486C70.8908 69.0644 70.9909 69.2091 71.0195 69.3828C71.0481 69.5566 71.0625 69.7158 71.0625 69.8606C70.4903 70.3238 69.9038 70.7002 69.303 70.9897C68.7022 71.3082 68.0298 71.4675 67.286 71.4675C66.5993 71.4675 66.0272 71.3516 65.5694 71.12C65.1403 70.8884 64.7826 70.5699 64.4965 70.1646C64.2104 69.7592 64.0102 69.296 63.8957 68.7748C63.7813 68.2537 63.7241 67.6891 63.7241 67.0811C63.7241 66.0967 63.8528 65.1268 64.1103 64.1713C64.3678 63.1869 64.6682 62.2604 65.0115 61.3918C65.3834 60.4943 65.7697 59.6691 66.1702 58.9164C66.5707 58.1346 66.914 57.4398 67.2001 56.8318Z" fill="#404040"/>
<path d="M75.2101 67.7325C75.2101 67.472 75.2244 67.139 75.253 66.7337C75.3102 66.3283 75.396 65.8072 75.5105 65.1702C75.6249 64.5332 75.768 63.766 75.9396 62.8684C76.1399 61.9419 76.3688 60.8417 76.6263 59.5678C76.6835 59.3072 76.7979 58.8585 76.9696 58.2215C77.1412 57.5845 77.3701 56.9041 77.6562 56.1803C77.9709 55.4275 78.3571 54.7327 78.8149 54.0957C79.2727 53.4298 79.8305 52.9376 80.4886 52.6191C80.9749 52.677 81.6186 52.9521 82.4197 53.4443C83.2494 53.9075 83.9503 54.559 84.5225 55.3986C83.2637 56.9041 82.3053 58.4531 81.6473 60.0455C81.0178 61.6379 80.417 63.3751 79.8448 65.2571C79.5301 66.2704 79.244 67.139 78.9866 67.8628C78.7577 68.5866 78.6432 69.296 78.6432 69.9909C78.6432 70.512 78.6289 70.8884 78.6003 71.12C78.6003 71.3516 78.5288 71.4675 78.3857 71.4675C78.2999 71.4675 78.0854 71.3951 77.742 71.2503C77.3987 71.1055 77.0411 70.8739 76.6692 70.5554C76.2972 70.2659 75.9539 69.8895 75.6392 69.4263C75.3531 68.963 75.2101 68.3984 75.2101 67.7325ZM89.9298 40.6326C90.2159 40.8063 90.502 41.0958 90.7881 41.5012C91.1028 41.8776 91.3745 42.3119 91.6034 42.8041C91.8609 43.2673 92.0612 43.745 92.2042 44.2372C92.3473 44.7294 92.4188 45.1782 92.4188 45.5835C91.3316 46.3363 90.3732 46.9588 89.5435 47.451C88.7425 47.9432 88.0129 48.3486 87.3549 48.667C86.7255 48.9566 86.1676 49.1737 85.6812 49.3185C85.1949 49.4343 84.7228 49.4922 84.265 49.4922C83.3495 49.4922 82.5628 49.2171 81.9047 48.667C82.5342 48.4354 83.1922 48.0735 83.8788 47.5813C84.5654 47.0891 85.2521 46.4956 85.9387 45.8007C86.654 45.1058 87.3406 44.3241 87.9986 43.4555C88.6852 42.5869 89.329 41.646 89.9298 40.6326Z" fill="#404040"/>
<path d="M86.6921 67.3851C86.6921 66.1112 86.9925 64.3306 87.5933 62.0433C88.1941 59.727 89.0381 57.0344 90.1252 53.9654C91.899 49.0724 93.5584 45.0045 95.1033 41.7618C96.6768 38.4901 98.2075 35.9422 99.6952 34.1182C100.038 34.1761 100.453 34.3209 100.94 34.5525C101.455 34.7841 101.955 35.0447 102.442 35.3342C102.928 35.5948 103.357 35.8698 103.729 36.1594C104.13 36.4489 104.387 36.6805 104.502 36.8542C102.27 39.5179 100.31 42.3843 98.6223 45.4533C96.9343 48.5223 95.3894 52.0401 93.9875 56.0066C92.7859 59.423 91.8704 62.5065 91.241 65.2571C90.6116 67.9786 90.2969 70.2514 90.2969 72.0755C90.2969 72.5677 90.2969 72.8717 90.2969 72.9875C90.2969 73.1033 90.3112 73.2191 90.3398 73.3349C89.9393 73.277 89.5959 73.1757 89.3098 73.0309C89.0238 72.8861 88.8378 72.7124 88.752 72.5098C88.6947 72.365 88.5374 72.1479 88.2799 71.8583C88.0224 71.5977 87.7935 71.3951 87.5933 71.2503C87.3358 71.0766 87.1212 70.6278 86.9496 69.904C86.7779 69.1512 86.6921 68.3116 86.6921 67.3851Z" fill="#404040"/>
<path d="M96.9198 67.2548C96.9198 66.9942 96.9341 66.6758 96.9627 66.2994C97.0199 65.894 97.1058 65.3729 97.2202 64.7359C97.3346 64.07 97.4777 63.2738 97.6494 62.3473C97.8496 61.4208 98.0928 60.3061 98.3789 59.0032C98.4361 58.7137 98.5649 58.2504 98.7651 57.6135C98.9654 56.9765 99.2229 56.3106 99.5376 55.6157C99.8809 54.8919 100.281 54.197 100.739 53.5311C101.226 52.8652 101.798 52.373 102.456 52.0545C102.942 52.1703 103.586 52.4743 104.387 52.9665C105.188 53.4298 105.875 54.0812 106.447 54.9209C105.789 55.6736 105.231 56.4264 104.773 57.1792C104.344 57.932 103.943 58.7137 103.572 59.5244C103.228 60.3351 102.899 61.1747 102.585 62.0433C102.298 62.9119 101.969 63.8239 101.597 64.7793C101.283 65.59 100.997 66.4296 100.739 67.2982C100.482 68.1379 100.339 68.8762 100.31 69.5131C100.31 70.0343 100.296 70.3962 100.267 70.5989C100.267 70.8305 100.196 70.9463 100.053 70.9463C99.9381 70.9463 99.7093 70.8739 99.3659 70.7292C99.0226 70.5844 98.665 70.3672 98.2931 70.0777C97.9498 69.7592 97.635 69.3684 97.3489 68.9051C97.0629 68.4419 96.9198 67.8918 96.9198 67.2548ZM105.116 48.4065C105.116 48.2327 105.159 47.9722 105.245 47.6247C105.102 47.48 104.973 47.2628 104.859 46.9733C104.773 46.6838 104.73 46.4232 104.73 46.1916C104.73 45.931 104.759 45.5835 104.816 45.1493C104.902 44.686 105.002 44.1938 105.116 43.6727C105.231 43.1515 105.374 42.6159 105.546 42.0658C105.717 41.4867 105.889 40.9656 106.061 40.5023C106.404 40.5023 106.819 40.6036 107.305 40.8063C107.82 40.98 108.335 41.2261 108.85 41.5446C109.365 41.8341 109.837 42.1671 110.266 42.5435C110.695 42.8909 111.024 43.2239 111.253 43.5424C110.939 43.8608 110.524 44.3096 110.009 44.8887C109.494 45.4388 108.993 46.0323 108.507 46.6693C108.02 47.2773 107.577 47.8563 107.176 48.4065C106.776 48.9566 106.518 49.3474 106.404 49.5791C106.061 49.5211 105.76 49.3764 105.503 49.1448C105.245 48.8842 105.116 48.6381 105.116 48.4065Z" fill="#404040"/>
<path d="M121.824 52.6191C122.11 52.6191 122.439 52.677 122.811 52.7928C123.212 52.8797 123.57 53.01 123.884 53.1837C124.199 53.3285 124.456 53.4877 124.657 53.6614C124.886 53.8351 125 53.9944 125 54.1391C124.428 55.3552 123.899 56.5857 123.412 57.8306C122.926 59.0467 122.511 60.2192 122.168 61.3484C121.824 62.4776 121.553 63.5344 121.352 64.5188C121.181 65.5032 121.095 66.3573 121.095 67.0811C121.095 67.8918 121.181 68.5722 121.352 69.1223C121.524 69.6434 121.81 70.0198 122.211 70.2514C121.867 70.4831 121.424 70.6712 120.88 70.816C120.337 70.9608 119.85 71.0332 119.421 71.0332C117.876 71.0332 117.104 69.9619 117.104 67.8194C117.104 66.1691 117.647 63.9107 118.734 61.0444C118.162 62.3762 117.504 63.6357 116.76 64.8228C116.017 65.9809 115.258 67.0087 114.486 67.9062C113.713 68.8038 112.927 69.5421 112.126 70.1211C111.353 70.6712 110.638 71.0042 109.98 71.12C108.921 71.0621 108.063 70.5554 107.405 69.6C106.747 68.6156 106.418 67.3706 106.418 65.8651C106.418 64.2437 106.761 62.5355 107.448 60.7404C108.135 58.9453 109.007 57.2805 110.066 55.746C111.153 54.2115 112.326 52.9376 113.585 51.9242C114.844 50.8819 116.059 50.3318 117.232 50.2739C117.519 50.3608 117.833 50.5345 118.177 50.7951C118.549 51.0557 118.892 51.3597 119.207 51.7071C119.55 52.0545 119.836 52.4164 120.065 52.7928C120.294 53.1403 120.422 53.4443 120.451 53.7048C119.307 53.8786 118.119 54.4431 116.889 55.3986C115.688 56.354 114.586 57.5121 113.585 58.8729C112.612 60.2048 111.811 61.6379 111.182 63.1724C110.552 64.7069 110.237 66.1401 110.237 67.472C110.237 68.0221 110.438 68.3695 110.838 68.5143C111.668 68.3405 112.626 67.6312 113.713 66.3862C114.801 65.1123 116.117 63.158 117.662 60.5233C117.948 60.0021 118.262 59.423 118.606 58.7861C118.978 58.1491 119.35 57.4832 119.722 56.7883C120.093 56.0935 120.451 55.3986 120.794 54.7037C121.166 53.9799 121.51 53.285 121.824 52.6191Z" fill="#404040"/>
</svg>
